<?xml version="1.0" encoding="UTF-8"?>
<svg width="80px" height="57px" viewBox="0 0 80 57" version="1.1" xmlns="http://www.w3.org/2000/svg" xmlns:xlink="http://www.w3.org/1999/xlink">
    <title>ico-domain</title>
    <g id="Domains" stroke="none" stroke-width="1" fill="none" fill-rule="evenodd">
        <g id="Domains-Page--TLD-select-state" transform="translate(-279.000000, -3150.000000)">
            <g id="Includes" transform="translate(-2.000000, 2572.000000)">
                <g id="ico-domain" transform="translate(282.000000, 579.000000)">
                    <g id="Group-13" transform="translate(6.117647, 0.000000)" stroke="#03243B" stroke-linecap="round" stroke-linejoin="round" stroke-width="2">
                        <path d="M27.4609815,0.134444444 C42.6273277,0.134444444 54.9227496,12.2951312 54.9227496,27.2987577 C54.9227496,42.3008282 42.6273277,54.463071 27.4609815,54.463071 C12.2946353,54.463071 -0.000786554622,42.3008282 -0.000786554622,27.2987577 C-0.000786554622,12.2951312 12.2946353,0.134444444 27.4609815,0.134444444 Z" id="Stroke-1"></path>
                        <line x1="27.4609815" y1="0.134444444" x2="27.4609815" y2="54.4381739" id="Stroke-3"></line>
                        <path d="M46.8690595,8.38441615 C42.6767234,12.1298765 35.5426729,14.5946914 27.4474528,14.5946914 C19.3695368,14.5946914 12.2496444,12.140769 8.05416202,8.40931327" id="Stroke-5"></path>
                        <path d="M46.8690595,46.2116988 C42.6767234,42.4677945 35.5426729,40.0029797 27.4474528,40.0029797 C19.3695368,40.0029797 12.2496444,42.456902 8.05416202,46.1868017" id="Stroke-7"></path>
                        <path d="M27.2114864,54.1546579 C18.9274931,48.3691898 13.4735234,38.5223791 13.4735234,27.3497968 C13.4735234,16.2021116 18.9038965,6.37552984 27.1564276,0.585393519" id="Stroke-9"></path>
                        <path d="M28.1169681,54.1546579 C36.3993882,48.3691898 41.853358,38.5223791 41.853358,27.3497968 C41.853358,16.2021116 36.424558,6.37552984 28.1720269,0.585393519" id="Stroke-11"></path>
                    </g>
                    <path d="M77.4901961,27.0416667 L64.607929,12.8333333 L64.607929,18.4380539 L1.58093153,18.4380539 C0.706676395,18.4380539 0,18.8942521 0,19.4563535 L0,34.7308464 C0,35.2939661 0.706676395,35.7491459 1.58093153,35.7491459 L64.607929,35.7491459 L64.607929,41.25 L77.4901961,27.0416667 Z" id="Stroke-16" stroke="#03243B" stroke-width="2" fill="#EAF8FF" stroke-linecap="round" stroke-linejoin="round"></path>
                    <path d="M53.7595003,33 C54.1492972,33 54.4628839,32.8581952 54.7015096,32.5745856 C54.938886,32.2909761 55.0588235,31.8655617 55.0588235,31.2983425 L55.0588235,26.0259055 C55.0588235,24.9779006 54.9513795,24.2094537 54.7377408,23.7219153 C54.4941176,23.180356 54.1255596,22.7657459 53.6308173,22.4753837 C53.1373243,22.1850215 52.5476314,22.0405157 51.8642374,22.0405157 C51.2795419,22.0405157 50.7460698,22.1728668 50.2638209,22.4402701 C49.7815721,22.7076734 49.330557,23.118232 48.9095263,23.671946 C48.6171786,23.1249847 48.2448725,22.7157766 47.7938574,22.4456722 C47.3415929,22.1755678 46.801874,22.0405157 46.1734513,22.0405157 C45.5687663,22.0405157 45.0203019,22.1715163 44.5255596,22.4362185 C44.0320666,22.6995703 43.568558,23.1114794 43.1350338,23.671946 L43.1350338,23.4153468 C43.1350338,22.9804788 43.0200937,22.6387968 42.7927121,22.3916513 C42.5628319,22.1431553 42.2792296,22.0202578 41.9369079,22.0202578 C41.583342,22.0202578 41.297241,22.152609 41.0811036,22.4159607 C40.8649662,22.6793125 40.7562728,23.0655617 40.7562728,23.5733579 L40.7562728,31.2983425 C40.7562728,31.8588091 40.8762103,32.2828729 41.1173347,32.5705341 C41.3584591,32.8568447 41.6682978,33 42.0468506,33 C42.4316502,33 42.7402395,32.8568447 42.9751171,32.5705341 C43.2099948,32.2828729 43.3274336,31.8588091 43.3274336,31.2983425 L43.3274336,27.6492327 C43.3274336,26.5147944 43.457366,25.6437078 43.7159813,25.0373235 C43.9758459,24.4309392 44.5143155,24.1270718 45.3313899,24.1270718 C45.7399271,24.1270718 46.0385216,24.2472683 46.2284227,24.4876611 C46.4170744,24.728054 46.5332639,25.0373235 46.5757418,25.4127686 C46.6182197,25.7895641 46.640708,26.3162676 46.640708,26.9955801 L46.640708,31.2983425 C46.640708,31.8655617 46.7581468,32.2909761 46.9917751,32.5745856 C47.2266528,32.8581952 47.5339927,33 47.9112962,33 C48.3023425,33 48.6171786,32.8581952 48.8545549,32.5745856 C49.0931806,32.2909761 49.2106195,31.8655617 49.2106195,31.2983425 L49.2106195,27.7086556 C49.2106195,26.5539595 49.3030713,25.7490485 49.4854763,25.2939227 C49.6503904,24.9387354 49.88152,24.6551258 50.1763665,24.4444444 C50.4724623,24.2324125 50.7847996,24.1270718 51.1146278,24.1270718 C51.523165,24.1270718 51.8280062,24.2459177 52.0291515,24.4836096 C52.2302967,24.7213014 52.3539823,25.0143646 52.4002082,25.3641498 C52.4451848,25.7125844 52.4689224,26.1785144 52.4689224,26.7578883 L52.4689224,31.2983425 C52.4689224,31.8588091 52.58886,32.2828729 52.8299844,32.5705341 C53.0711088,32.8568447 53.3809474,33 53.7595003,33 M33.9485685,30.9917741 C33.4475794,30.9917741 33.0140552,30.8513198 32.6442478,30.5717618 C32.2756897,30.2908533 31.9920875,29.8870473 31.7934409,29.3603438 C31.5947944,28.8322897 31.4960958,28.2151013 31.4960958,27.5101289 C31.4960958,26.7984039 31.5960437,26.1744629 31.797189,25.6410068 C31.9995836,25.1062001 32.2856845,24.7023941 32.6579906,24.4282382 C33.0302967,24.1554328 33.4600729,24.0190301 33.9485685,24.0190301 C34.7044248,24.0190301 35.3066111,24.3255985 35.7551275,24.9387354 C36.2036439,25.5518723 36.4285268,26.4094537 36.4285268,27.5101289 C36.4285268,28.597299 36.2036439,29.4508287 35.7551275,30.0666667 C35.3066111,30.6838551 34.7044248,30.9917741 33.9485685,30.9917741 M33.9485685,33 C34.7106715,33 35.3978136,32.8689994 36.0074961,32.6096992 C36.6171786,32.3490485 37.1419053,31.9736034 37.5816762,31.4860651 C38.0201978,30.9985267 38.3562728,30.4151013 38.5874024,29.7357888 C38.8197814,29.0564764 38.9359708,28.3136894 38.9359708,27.5101289 C38.9359708,26.6984653 38.8210307,25.9570289 38.5911504,25.284469 C38.3637689,24.6119091 38.0289433,24.0311848 37.5904217,23.5436464 C37.1506507,23.056108 36.6234253,22.6793125 36.0074961,22.4159607 C35.3915669,22.152609 34.7044248,22.0202578 33.9485685,22.0202578 C33.2039563,22.0202578 32.5230609,22.1499079 31.9071317,22.4105586 C31.2912025,22.6712093 30.7664758,23.0426028 30.3342009,23.5233886 C29.9006767,24.0055249 29.5683498,24.5862492 29.3359708,25.2642112 C29.1048412,25.9435236 28.9886517,26.6930632 28.9886517,27.5101289 C28.9886517,28.320442 29.1035919,29.0618785 29.3322228,29.7303867 C29.5608537,30.4002455 29.8956793,30.9809699 30.337949,31.4712093 C30.7802186,31.9627993 31.303696,32.3409454 31.9071317,32.6042971 C32.5118168,32.8676489 33.1914628,33 33.9485685,33 M22.8755856,32.9797422 C23.6014576,32.9797422 24.2548673,32.8744015 24.8345653,32.6637201 C25.4142634,32.4530387 25.8940135,32.1748312 26.2750651,31.8277471 C26.657366,31.4820135 26.9409682,31.1160221 27.1271213,30.7338244 C27.3132743,30.3516268 27.4057262,29.992388 27.4057262,29.656108 C27.4057262,29.3724985 27.3045289,29.1050952 27.1033837,28.8552486 C26.9022384,28.6040516 26.6486205,28.478453 26.3437793,28.478453 C26.0876627,28.478453 25.8715252,28.5648864 25.6941176,28.7364027 C25.5179594,28.907919 25.3530453,29.1456108 25.2006247,29.4481277 C24.9257678,29.9626765 24.6096825,30.3448742 24.2536179,30.5960712 C23.896304,30.8459177 23.4677772,30.9715163 22.9680375,30.9715163 C22.5957314,30.9715163 22.2534097,30.8945365 21.9423217,30.7392265 C21.6312337,30.585267 21.3663717,30.3570289 21.1464862,30.057213 C20.9266007,29.7573972 20.7591879,29.3941068 20.6429984,28.970043 C20.526809,28.5432781 20.4693389,28.0773481 20.4693389,27.5695519 C20.4693389,26.4877839 20.6954711,25.6356047 21.1464862,25.0116636 C21.5975013,24.3890731 22.1921916,24.078453 22.930557,24.078453 C23.4427902,24.078453 23.8663196,24.202701 24.1986465,24.4538981 C24.5309735,24.7037446 24.8495575,25.0805402 25.1543988,25.5815838 C25.3255596,25.8381829 25.4792296,26.0245549 25.616658,26.1393493 C25.7540864,26.2554942 25.9264966,26.3135666 26.1338886,26.3135666 C26.4512233,26.3135666 26.7210828,26.2014733 26.9434669,25.9772867 C27.1658511,25.7531001 27.2770432,25.4789441 27.2770432,25.1561694 C27.2770432,24.8401473 27.1783446,24.4984653 26.9796981,24.1324739 C26.7823009,23.7664825 26.4949505,23.4220994 26.1201458,23.0979742 C25.745341,22.7751995 25.2868298,22.5118478 24.7471109,22.307919 C24.207392,22.1026397 23.6139511,22 22.9680375,22 C21.9248308,22 21.027798,22.2322897 20.2769391,22.6982198 C19.5273295,23.1627993 18.9538782,23.8205034 18.5565851,24.6713321 C18.1605414,25.5221608 17.9618948,26.5012891 17.9618948,27.608717 C17.9618948,29.2441989 18.3954191,30.5488029 19.2612181,31.5211786 C20.1282665,32.4935543 21.3326393,32.9797422 22.8755856,32.9797422 M14.2375846,33 C14.6036439,33 14.9234774,32.8662983 15.1945862,32.598895 C15.465695,32.3328422 15.601874,31.9641498 15.601874,31.4968692 C15.601874,31.0876611 15.465695,30.7392265 15.1945862,30.4529159 C14.9234774,30.1652548 14.5948985,30.0220994 14.2100989,30.0220994 C13.8265487,30.0220994 13.5029672,30.1666053 13.2406039,30.4569675 C12.9782405,30.7473297 12.8470588,31.0944138 12.8470588,31.4968692 C12.8470588,31.9709024 12.9844872,32.3409454 13.2593441,32.6042971 C13.5329516,32.8676489 13.8590318,33 14.2375846,33" id="Fill-18" fill="#66A8F7"></path>
                </g>
            </g>
        </g>
    </g>
</svg>