<?xml version="1.0" encoding="UTF-8"?>
<svg width="64px" height="56px" viewBox="0 0 64 56" version="1.1" xmlns="http://www.w3.org/2000/svg" xmlns:xlink="http://www.w3.org/1999/xlink">
    <title>ico-domainmanagement</title>
    <g id="Domains" stroke="none" stroke-width="1" fill="none" fill-rule="evenodd" stroke-linecap="round" stroke-linejoin="round">
        <g id="Domains-Page--TLD-select-state" transform="translate(-280.000000, -2831.000000)" stroke-width="2.75">
            <g id="Includes" transform="translate(-2.000000, 2572.000000)">
                <g id="ico-domainmanagement" transform="translate(284.000000, 261.000000)">
                    <path d="M12.7438431,52.6153846 L12.7285394,52.5649581 L6.71696931,51.9934574 C5.99630435,48.8600091 5.99630435,45.6018951 6.71696931,42.4684467 L12.7285394,41.8969461 C13.0860894,40.6811065 13.5646777,39.5086897 14.1587394,38.3923025 L10.3175116,33.7068376 C12.0092657,30.9796029 14.2950814,28.6753908 17.0052269,26.9720948 L21.6589417,30.8479337 C22.7663728,30.2456168 23.9322362,29.7595611 25.1384458,29.3953695 L25.7088562,23.3441863 C28.8210715,22.6186046 32.0557164,22.6186046 35.169323,23.3441863 L35.736951,29.3953695 C36.9431605,29.7595611 38.1104151,30.2456168 39.2206287,30.8479337 L43.8729523,26.9720948 C46.5830978,28.6753908 48.8703048,30.9796029 50.5606676,33.7068376 L46.7124836,38.3923025 C47.310719,39.507289 47.7948723,40.6811065 48.1538135,41.8969461 L54.1653836,42.4684467 C54.8860486,45.6018951 54.8860486,48.8600091 54.1653836,51.9934574 L48.156596,52.5649581 L48.1385098,52.6153846" id="Stroke-1" stroke="#66A8F7"></path>
                    <path d="M21.8817548,52.6153846 C19.2247844,48.5906578 19.9679058,43.2394602 23.622624,40.07845 C27.2773423,36.9174397 32.721364,36.9174397 36.3760823,40.07845 C40.0321843,43.2394602 40.7753057,48.5906578 38.1183353,52.6153846" id="Stroke-3" stroke="#66A8F7"></path>
                    <path d="M43.8823256,5.13087135 C43.1427907,5.13087135 42.5427907,5.72796869 42.5427907,6.46392588 C42.5427907,7.19988307 43.1427907,7.79698041 43.8823256,7.79698041 C44.6218605,7.79698041 45.2218605,7.19988307 45.2218605,6.46392588 C45.2218605,5.72796869 44.6218605,5.13087135 43.8823256,5.13087135 Z M52.4413953,5.13087135 C51.7018605,5.13087135 51.1018605,5.72796869 51.1018605,6.46392588 C51.1018605,7.19988307 51.7018605,7.79698041 52.4413953,7.79698041 C53.1809302,7.79698041 53.7809302,7.19988307 53.7809302,6.46392588 C53.7809302,5.72796869 53.1809302,5.13087135 52.4413953,5.13087135 Z M60,12.4418423 L0,12.4418423 L60,12.4418423 Z M3.55271368e-15,52.6153846 L60,52.6153846 L60,0 L3.55271368e-15,0 L3.55271368e-15,52.6153846 Z" id="Stroke-5" stroke="#03243B"></path>
                </g>
            </g>
        </g>
    </g>
</svg>