<?xml version="1.0" encoding="UTF-8"?>
<svg width="45px" height="64px" viewBox="0 0 45 64" version="1.1" xmlns="http://www.w3.org/2000/svg" xmlns:xlink="http://www.w3.org/1999/xlink">
    <title>ico-lock</title>
    <g id="Domains" stroke="none" stroke-width="1" fill="none" fill-rule="evenodd" stroke-linecap="round" stroke-linejoin="round">
        <g id="Domains-Page--TLD-select-state" transform="translate(-1259.000000, -2827.000000)" stroke-width="2.5">
            <g id="Includes" transform="translate(-2.000000, 2572.000000)">
                <g id="ico-lock" transform="translate(1263.000000, 257.000000)">
                    <path d="M7.19877217,22.2167442 L7.19877217,10.9911628 C7.20436562,4.38 11.59103,0 18.2108799,0 L22.7919168,0 C29.4117667,0 33.7984311,4.38697674 33.7984311,10.9911628 L33.7984311,22.2251163 L7.19877217,22.2167442 Z M3.33649386,22.7665116 L37.6621078,22.7665116 C39.4995566,22.7832558 40.9832196,24.2651163 41,26.0972093 L41,48.8776744 C41,54.9739535 36.9866985,60 30.8814461,60 L10.1199523,60 C4.0133015,60 0,54.9962791 0,48.8776744 L0,26.104186 C0.00699181446,24.267907 1.49764666,22.7804651 3.33649386,22.772093 L3.33649386,22.7665116 Z" id="Stroke-1" stroke="#03243B"></path>
                    <path d="M23.0373922,43.0253023 L25.5584014,51 L16.4500633,51 L19.0419333,43.0567156 C16.8629638,42.0857587 15.6338014,39.6440875 16.097122,37.2109837 C16.5618054,34.776452 18.5922398,33.0173065 20.9619884,33 C23.3303744,32.9801817 25.3867002,34.7050581 25.886814,37.1310226 C26.3869277,39.556987 25.1931958,42.0186484 23.0278533,43.0253023 L23.0373922,43.0253023 Z" id="Stroke-3" stroke="#66A8F7"></path>
                </g>
            </g>
        </g>
    </g>
</svg>