<?xml version="1.0" encoding="utf-8"?><!DOCTYPE svg PUBLIC "-//W3C//DTD SVG 1.1//EN" "http://www.w3.org/Graphics/SVG/1.1/DTD/svg11.dtd"><svg version="1.1" xmlns="http://www.w3.org/2000/svg" xmlns:xlink="http://www.w3.org/1999/xlink" x="0px" y="0px" width="100px" height="100px" viewBox="0 0 100 100" enable-background="new 0 0 100 100" xml:space="preserve"><g class="outlined"><g><path fill="#3575D3" d="M35.521,64.591c1.682-0.492,3.049-1.9,3.049-4.047c0-3.021-2.611-4.771-6.576-4.771h-5.811v18.949h7c4.211,0,6.521-2.311,6.521-5.195C39.705,66.683,37.695,65.001,35.521,64.591z M29.725,58.603h2.119c2.092,0,3.281,1.012,3.281,2.447c0,1.477-1.408,2.611-3.568,2.611h-1.832V58.603z M32.924,71.892h-3.199v-5.4h2.666c2.338,0,3.76,1.271,3.76,2.775C36.15,70.894,34.756,71.892,32.924,71.892z"/><path fill="#3575D3" d="M46.323,34.786h7.355l1.805,4.936h4.047l-7.643-18.949H48.1l-7.629,18.949h4.033L46.323,34.786z M50.014,24.724l2.639,7.232h-5.291L50.014,24.724z"/><path fill="#3575D3" d="M70.063,75.063c2.023,0.014,3.91-0.438,5.674-1.354l-1.271-2.707c-1.354,0.861-2.912,1.244-4.402,1.23c-3.979,0-6.945-2.803-6.945-6.945c0-4.375,3.309-7.109,7.109-7.109c1.504,0,2.926,0.424,4.129,1.094l1.203-2.611c-1.23-0.656-2.994-1.312-5.359-1.299c-5.195,0-10.76,3.213-10.76,9.871C59.44,71.728,64.581,75.063,70.063,75.063z"/><path fill="#3575D3" d="M17,81h31V50H17V81z M20,53h25v25H20V53z"/><path fill="#3575D3" d="M65.5,15h-31v31h31V15z M62.5,43h-25V18h25V43z"/><path fill="#3575D3" d="M52,50v31h31V50H52z M80,78H55V53h25V78z"/></g></g><g class="filled" display="none"><g display="inline"><path fill="#3575D3" d="M35.125,61.05c0-1.436-1.189-2.447-3.281-2.447h-2.119v5.059h1.832C33.717,63.661,35.125,62.526,35.125,61.05z"/><path fill="#3575D3" d="M36.15,69.267c0-1.504-1.422-2.775-3.76-2.775h-2.666v5.4h3.199C34.756,71.892,36.15,70.894,36.15,69.267z"/><polygon fill="#3575D3" points="47.362,31.956 52.653,31.956 50.014,24.724 "/><path fill="#3575D3" d="M65.5,15h-31v31h31V15z M55.483,39.722l-1.805-4.936h-7.355l-1.818,4.936h-4.033L48.1,20.772h3.787l7.643,18.949H55.483z"/><path fill="#3575D3" d="M17,81h31V50H17V81z M26.184,55.772h5.811c3.965,0,6.576,1.75,6.576,4.771c0,2.146-1.367,3.555-3.049,4.047c2.174,0.41,4.184,2.092,4.184,4.936c0,2.885-2.311,5.195-6.521,5.195h-7V55.772z"/><path fill="#3575D3" d="M52,50v31h31V50H52z M70.063,75.063c-5.482,0-10.623-3.336-10.623-9.83c0-6.658,5.564-9.871,10.76-9.871c2.365-0.014,4.129,0.643,5.359,1.299l-1.203,2.611c-1.203-0.67-2.625-1.094-4.129-1.094c-3.801,0-7.109,2.734-7.109,7.109c0,4.143,2.967,6.945,6.945,6.945c1.49,0.014,3.049-0.369,4.402-1.23l1.271,2.707C73.974,74.626,72.087,75.077,70.063,75.063z"/></g></g></svg>
