<?xml version="1.0" encoding="utf-8"?><!DOCTYPE svg PUBLIC "-//W3C//DTD SVG 1.1//EN" "http://www.w3.org/Graphics/SVG/1.1/DTD/svg11.dtd"><svg version="1.1" xmlns="http://www.w3.org/2000/svg" xmlns:xlink="http://www.w3.org/1999/xlink" x="0px" y="0px" width="100px" height="100px" viewBox="0 0 100 100" enable-background="new 0 0 100 100" xml:space="preserve"><g class="outlined"><g><path fill="#3575D3" d="M53.698,46.575c-0.068-0.08-0.162-0.146-0.236-0.222c-0.928-1.079-2.285-1.772-3.806-1.772c-0.053,0-0.107,0.001-0.161,0.003c-2.779,0.089-4.961,2.412-4.872,5.194c0.047,1.478,0.738,2.771,1.777,3.66c0.136,0.143,0.262,0.29,0.46,0.431l20.835,14.825c0.292,0.21,0.641,0.318,0.992,0.318c0.378,0,0.759-0.126,1.072-0.384c0.722-0.594,0.826-1.66,0.232-2.382L53.698,46.575z"/><path fill="#3575D3" d="M50,6.223c-24.262,0-44,19.738-44,44c0,11.755,4.578,22.806,12.891,31.116l1.062,1.061l7.793-7.8l-2.123-2.12l-5.652,5.658C12.884,70.528,9,60.675,9,50.223c0-22.607,18.393-41,41-41s41,18.393,41,41c0,10.449-3.882,20.3-10.964,27.908l-5.619-5.65l-2.127,2.115l7.759,7.803l1.063-1.064C89.423,73.025,94,61.976,94,50.223C94,25.961,74.262,6.223,50,6.223z"/><path fill="#3575D3" d="M50.178,25.966l0.083,0.003l0.077-0.002c0.781-0.042,18.565-0.307,22.798,22.239l-6.67-4.379l-1.646,2.508l11.226,7.37l0.023-0.036l0.125,0.082l7.433-11.332l-2.508-1.646l-4.128,6.293c-4.809-24.472-24.702-25.099-26.645-25.099c-0.013,0-0.024,0-0.036,0c-7.016-0.314-13.794,2.269-19.03,7.27c-5.552,5.301-8.735,12.757-8.735,20.456c0,12.273,7.783,19.453,8.114,19.752l2.688-2.963c-0.067-0.062-6.802-6.349-6.802-16.79c0-6.611,2.732-13.013,7.497-17.562C38.492,27.88,44.212,25.684,50.178,25.966z"/></g></g><g class="filled" display="none"><path display="inline" fill="#3575D3" d="M50.164,5.962c-24.311,0-44.019,19.708-44.019,44.019S25.853,94,50.164,94c24.311,0,44.019-19.708,44.019-44.019S74.475,5.962,50.164,5.962z M33.346,66.483l-2.688,2.963c-0.331-0.3-8.114-7.479-8.114-19.752c0-7.699,3.184-15.155,8.735-20.456c5.236-5,12.015-7.584,19.03-7.27c0.012,0,0.023,0,0.036,0c1.943,0,21.835,0.627,26.645,25.099l4.128-6.293l2.508,1.646l-7.433,11.332l-0.125-0.082l-0.023,0.036l-11.226-7.37l1.646-2.508l6.67,4.379C68.903,25.66,51.119,25.926,50.338,25.967l-0.077,0.002l-0.083-0.003c-5.966-0.283-11.686,1.914-16.137,6.165c-4.765,4.55-7.497,10.951-7.497,17.562C26.544,60.134,33.278,66.421,33.346,66.483z M68.424,67.358c-0.563,0.464-1.358,0.468-1.924,0.062L47.085,53.605c-0.185-0.132-0.302-0.269-0.429-0.402c-0.968-0.828-1.612-2.033-1.656-3.41c-0.083-2.592,1.951-4.758,4.54-4.84c1.478-0.047,2.801,0.607,3.697,1.648c0.069,0.071,0.157,0.132,0.22,0.207l15.183,18.33C69.194,65.81,69.097,66.804,68.424,67.358z M79.076,79.271l-1.063,1.063l-7.304-7.343l2.127-2.115l5.162,5.19c6.535-7.06,10.117-16.185,10.117-25.859c0-21.01-17.094-38.104-38.104-38.104S11.907,29.196,11.907,50.206c0,9.677,3.584,18.804,10.122,25.865l5.193-5.198l2.123,2.12l-7.335,7.341l-1.062-1.061C13.184,71.509,8.907,61.186,8.907,50.206c0-22.665,18.438-41.104,41.104-41.104s41.104,18.439,41.104,41.104C91.115,61.185,86.84,71.507,79.076,79.271z"/></g></svg>
