<?xml version="1.0" encoding="utf-8"?><!DOCTYPE svg PUBLIC "-//W3C//DTD SVG 1.1//EN" "http://www.w3.org/Graphics/SVG/1.1/DTD/svg11.dtd"><svg version="1.1" xmlns="http://www.w3.org/2000/svg" xmlns:xlink="http://www.w3.org/1999/xlink" x="0px" y="0px" width="100px" height="100px" viewBox="0 0 100 100" enable-background="new 0 0 100 100" xml:space="preserve"><g class="outlined"><g><path fill="#4473B9" d="M79.855,6.108H20c-7.7,0-14,6.3-14,14V80c0,7.7,6.3,14,14,14h59.855c7.7,0,14-6.3,14-14V20.108C93.855,12.408,87.555,6.108,79.855,6.108z M90.855,80c0,6.065-4.935,11-11,11H20c-6.065,0-11-4.935-11-11V20.108c0-6.065,4.935-11,11-11h59.855c6.065,0,11,4.935,11,11V80z"/><path fill="#4473B9" d="M73.888,41.15l0.013-0.005l-0.318-0.767c-0.068-0.166-0.135-0.332-0.206-0.497l-0.242-0.584l-0.019,0.008c-1.126-2.439-2.625-4.67-4.427-6.618l0.017-0.017l-1.414-1.414l-0.017,0.017c-1.948-1.802-4.179-3.3-6.618-4.427l0.008-0.019l-0.584-0.242c-0.164-0.071-0.331-0.138-0.497-0.206l-0.767-0.318l-0.005,0.013c-2.449-0.904-5.076-1.437-7.812-1.543v-0.026h-2v0.026c-2.737,0.106-5.364,0.639-7.812,1.543l-0.005-0.013l-0.767,0.318c-0.166,0.068-0.332,0.135-0.497,0.206l-0.584,0.242l0.008,0.019c-2.439,1.126-4.67,2.625-6.618,4.426l-0.017-0.017l-1.414,1.414l0.017,0.017c-1.802,1.948-3.3,4.179-4.426,6.618l-0.019-0.008l-0.243,0.585c-0.07,0.163-0.137,0.328-0.204,0.493l-0.319,0.77l0.013,0.005c-0.904,2.449-1.437,5.076-1.543,7.812h-0.026v2h0.026c0.106,2.737,0.639,5.364,1.543,7.812l-0.013,0.005l0.319,0.77c0.067,0.165,0.134,0.33,0.204,0.493l0.243,0.585l0.019-0.008c1.126,2.439,2.625,4.67,4.426,6.618l-0.017,0.017l1.414,1.414l0.017-0.017c1.948,1.802,4.179,3.3,6.618,4.426l-0.008,0.019l0.584,0.242c0.164,0.071,0.331,0.138,0.497,0.206l0.767,0.318l0.005-0.013c2.449,0.904,5.076,1.437,7.812,1.543v0.026h2v-0.026c2.737-0.106,5.364-0.639,7.812-1.543l0.005,0.013l0.767-0.318c0.166-0.068,0.332-0.135,0.497-0.206l0.584-0.242l-0.008-0.019c2.439-1.126,4.67-2.625,6.618-4.427l0.017,0.017l1.414-1.414l-0.017-0.017c1.802-1.948,3.3-4.179,4.427-6.618l0.019,0.008l0.242-0.584c0.071-0.164,0.138-0.331,0.206-0.497l0.318-0.767l-0.013-0.005c0.904-2.449,1.437-5.076,1.543-7.812h0.026v-2h-0.026C75.325,46.226,74.791,43.599,73.888,41.15z M72.034,58.007l-2.937-1.217l-0.766,1.848l2.93,1.214c-1.024,2.193-2.375,4.203-3.994,5.965l-3.835-3.835l-1.414,1.414l3.835,3.835c-1.762,1.619-3.772,2.97-5.965,3.994l-1.216-2.934l-1.848,0.766l1.218,2.941c-2.212,0.81-4.58,1.292-7.045,1.396v-5.431h-2v5.431c-2.464-0.104-4.832-0.586-7.045-1.396l1.218-2.939l-1.848-0.766l-1.215,2.932c-2.193-1.024-4.203-2.375-5.965-3.994l3.833-3.833l-1.414-1.414l-3.833,3.833c-1.619-1.762-2.97-3.772-3.994-5.965l2.932-1.215l-0.766-1.848l-2.939,1.217c-0.81-2.212-1.292-4.58-1.396-7.045H32v-2h-5.43c0.104-2.464,0.586-4.832,1.396-7.045l2.94,1.218l0.766-1.848l-2.934-1.215c1.024-2.193,2.375-4.203,3.994-5.965l3.835,3.835l1.414-1.414l-3.835-3.835c1.762-1.619,3.772-2.97,5.965-3.994l1.218,2.939l1.848-0.766l-1.22-2.946c2.212-0.81,4.58-1.292,7.045-1.396v5.43h2v-5.43c2.464,0.104,4.832,0.586,7.045,1.396l-1.218,2.94l1.848,0.766l1.215-2.933c2.193,1.024,4.203,2.375,5.965,3.994l-3.834,3.834l1.414,1.414l3.834-3.834c1.619,1.762,2.97,3.772,3.994,5.965l-2.932,1.215l0.766,1.848l2.939-1.218c0.81,2.212,1.292,4.58,1.396,7.045H68v2h5.43C73.327,53.427,72.845,55.795,72.034,58.007z"/><path fill="#4473B9" d="M50,40.962c-4.971,0-9,4.029-9,9s4.029,9,9,9c4.971,0,9-4.029,9-9S54.971,40.962,50,40.962z M50,55.962c-3.308,0-6-2.692-6-6s2.692-6,6-6s6,2.692,6,6S53.308,55.962,50,55.962z"/><polygon fill="#4473B9" points="53.103,16.25 46.752,16.25 49.927,21.75 "/></g></g><g class="filled" display="none"><g display="inline"><path fill="#4473B9" d="M79.798,6.016H19.943c-7.7,0-14,6.3-14,14v59.892c0,7.7,6.3,14,14,14h59.855c7.7,0,14-6.3,14-14V20.016C93.798,12.316,87.498,6.016,79.798,6.016z M53.046,16.158l-3.175,5.5l-3.175-5.5H53.046z M49.943,75.326c-14.059,0-25.456-11.397-25.456-25.456c0-14.059,11.397-25.456,25.456-25.456c14.059,0,25.456,11.397,25.456,25.456C75.399,63.929,64.002,75.326,49.943,75.326z"/><path fill="#4473B9" d="M66.835,35.099l-3.104,3.104l-2.121-2.121l3.104-3.104c-1.453-1.272-3.068-2.36-4.814-3.227l-0.821,1.982l-2.771-1.148l0.822-1.984c-1.805-0.612-3.711-1-5.687-1.131v4.4h-3v-4.4c-1.976,0.131-3.882,0.519-5.687,1.131l0.824,1.99l-2.771,1.147l-0.823-1.988c-1.746,0.867-3.361,1.956-4.814,3.228l3.105,3.105l-2.121,2.121l-3.105-3.105c-1.272,1.452-2.36,3.068-3.227,4.814l1.983,0.821l-1.148,2.771l-1.984-0.822c-0.612,1.805-1,3.711-1.131,5.687h4.4v3h-4.4c0.131,1.976,0.519,3.882,1.131,5.686l1.982-0.821l1.148,2.771l-1.981,0.82c0.867,1.746,1.956,3.361,3.228,4.814l3.104-3.104l2.121,2.121l-3.104,3.104c1.453,1.272,3.068,2.36,4.814,3.228l0.821-1.982l2.771,1.148l-0.821,1.983c1.805,0.611,3.71,0.999,5.686,1.131v-4.4h3v4.401c1.976-0.131,3.882-0.519,5.687-1.131l-0.822-1.985l2.771-1.148l0.821,1.983c1.745-0.867,3.361-1.956,4.814-3.227l-3.105-3.105l2.121-2.121l3.105,3.105c1.272-1.453,2.36-3.068,3.228-4.814l-1.979-0.819l1.147-2.771l1.981,0.82c0.611-1.805,1-3.71,1.131-5.687h-4.4v-3h4.4c-0.131-1.976-0.519-3.882-1.131-5.687l-1.983,0.821l-1.148-2.771l1.982-0.821C69.196,38.168,68.107,36.552,66.835,35.099z M49.943,55.87c-3.308,0-6-2.692-6-6c0-3.308,2.692-6,6-6s6,2.692,6,6C55.943,53.179,53.252,55.87,49.943,55.87z"/></g></g></svg>
